<?xml version="1.0" encoding="UTF-8" standalone="no"?>
<!-- Created with Inkscape (http://www.inkscape.org/) -->

<svg
   width="133.843mm"
   height="125.75744mm"
   viewBox="0 0 133.843 125.75745"
   version="1.1"
   id="svg1"
   inkscape:version="1.4.2 (ebf0e940, 2025-05-08)"
   sodipodi:docname="nido-logo-new.svg"
   xmlns:inkscape="http://www.inkscape.org/namespaces/inkscape"
   xmlns:sodipodi="http://sodipodi.sourceforge.net/DTD/sodipodi-0.dtd"
   xmlns="http://www.w3.org/2000/svg"
   xmlns:svg="http://www.w3.org/2000/svg">
  <sodipodi:namedview
     id="namedview1"
     pagecolor="#ffffff"
     bordercolor="#000000"
     borderopacity="0.25"
     inkscape:showpageshadow="2"
     inkscape:pageopacity="0.0"
     inkscape:pagecheckerboard="true"
     inkscape:deskcolor="#d1d1d1"
     inkscape:document-units="mm"
     inkscape:zoom="0.351923"
     inkscape:cx="258.57929"
     inkscape:cy="417.70501"
     inkscape:window-width="1472"
     inkscape:window-height="895"
     inkscape:window-x="0"
     inkscape:window-y="61"
     inkscape:window-maximized="0"
     inkscape:current-layer="layer1" />
  <defs
     id="defs1">
    <inkscape:path-effect
       effect="powerstroke"
       message=""
       id="path-effect8"
       is_visible="true"
       lpeversion="1.3"
       scale_width="1"
       interpolator_type="CubicBezierJohan"
       interpolator_beta="0.2"
       start_linecap_type="zerowidth"
       end_linecap_type="zerowidth"
       offset_points="0,4.9921382"
       linejoin_type="extrp_arc"
       miter_limit="4"
       not_jump="false"
       sort_points="true" />
    <inkscape:path-effect
       effect="fill_between_many"
       method="bsplinespiro"
       autoreverse="false"
       close="false"
       join="false"
       linkedpaths="#path8,0,1"
       id="path-effect9"
       is_visible="true"
       lpeversion="0" />
  </defs>
  <g
     inkscape:label="Layer 1"
     inkscape:groupmode="layer"
     id="layer1"
     transform="translate(-50.078515,-123.98853)">
    <path
       id="path3"
       style="fill:#000000;fill-opacity:1;stroke:#000000;stroke-width:0.700691"
       d="m 83.150401,135.61446 c -1.99858,-0.0261 -4.403171,1.59179 -7.704439,6.25802 -2.262232,3.19757 1.019713,13.52635 6.610449,19.57193 2.643694,2.85878 4.841347,5.11038 6.942212,6.52001 a 28.322369,28.322369 0 0 0 -0.320911,4.25194 28.322369,28.322369 0 0 0 15.857428,25.43152 H 62.50825 a 55.394005,49.341938 0 0 0 54.49073,40.47247 55.394005,49.341938 0 0 0 54.4928,-40.47247 H 129.4654 a 28.322369,28.322369 0 0 0 15.85743,-25.43152 28.322369,28.322369 0 0 0 -28.32282,-28.32282 28.322369,28.322369 0 0 0 -16.93695,5.6224 c -2.878791,-2.25316 -6.241372,-4.69883 -9.220622,-7.6352 -2.71725,-2.67814 -4.771036,-6.22808 -7.692037,-6.26628 z m 38.179059,18.30069 a 7.6831765,7.3206196 0 0 1 7.68274,7.32049 7.6831765,7.3206196 0 0 1 -7.68274,7.32048 7.6831765,7.3206196 0 0 1 -7.68325,-7.32048 7.6831765,7.3206196 0 0 1 7.68325,-7.32049 z" />
  </g>
</svg>
