<?xml version="1.0" standalone="no"?>
<!DOCTYPE svg PUBLIC "-//W3C//DTD SVG 20010904//EN"
 "http://www.w3.org/TR/2001/REC-SVG-20010904/DTD/svg10.dtd">
<svg version="1.0" xmlns="http://www.w3.org/2000/svg"
 width="1024.000000pt" height="1024.000000pt" viewBox="0 0 1024.000000 1024.000000"
 preserveAspectRatio="xMidYMid meet">

<style>
  g { fill: #1a1b1e; }
  @media (prefers-color-scheme: dark) { g { fill: #fff; } }
</style>

<g transform="translate(0.000000,1024.000000) scale(0.100000,-0.100000)"
stroke="none">
<path d="M5047 8176 c-12 -13 -35 -48 -51 -77 -64 -121 -158 -224 -460 -503
-234 -216 -365 -436 -422 -711 -26 -125 -27 -404 -1 -525 54 -252 160 -456
330 -636 107 -114 224 -199 400 -290 136 -72 194 -114 182 -134 -2 -4 -27 -3
-55 1 -125 20 -314 21 -455 4 -282 -34 -455 -92 -905 -303 -164 -76 -239 -95
-385 -96 -160 -1 -216 15 -318 90 -209 156 -252 174 -313 136 -43 -27 -63 -77
-76 -185 -19 -160 21 -455 94 -697 155 -513 458 -923 876 -1187 162 -102 336
-179 540 -237 62 -18 117 -37 122 -42 17 -18 61 -360 76 -584 5 -88 3 -119
-14 -190 -40 -165 -36 -207 31 -353 97 -209 362 -632 445 -709 91 -85 143 -77
268 43 46 44 104 89 129 100 68 30 163 34 304 14 152 -21 227 -17 253 15 22
27 23 91 3 175 -33 135 -13 184 100 247 81 45 115 79 115 114 0 43 -18 63 -88
98 -92 46 -669 231 -956 307 -60 15 -113 32 -119 38 -18 18 -46 258 -62 532
l-5 96 172 6 c95 3 218 13 272 22 54 8 101 13 104 11 2 -3 18 -58 34 -123 23
-92 30 -147 33 -249 4 -151 12 -175 77 -224 58 -42 456 -241 642 -319 373
-158 432 -160 476 -12 11 37 30 77 42 88 44 40 137 76 299 118 83 21 124 46
133 79 10 41 -14 75 -101 142 -45 35 -79 69 -81 81 -2 15 9 31 37 53 22 18 45
45 52 62 10 25 9 33 -8 56 -42 56 -49 57 -636 57 -463 0 -539 3 -547 15 -21
33 -60 202 -60 260 0 23 6 29 41 39 132 40 362 160 501 263 109 80 272 244
335 338 130 193 213 427 213 598 0 53 1 54 18 39 23 -21 62 -22 87 -3 16 11
20 30 23 108 11 257 -100 511 -408 928 -98 132 -125 190 -125 265 1 88 35 143
195 310 149 154 218 251 304 422 49 98 61 115 98 136 24 13 124 68 223 122
231 125 334 193 416 275 74 75 129 172 129 230 0 28 9 49 39 86 39 50 71 125
71 169 0 14 -7 43 -16 65 -38 94 -151 104 -334 30 -58 -24 -157 -54 -225 -67
-104 -22 -136 -24 -245 -19 -69 3 -145 10 -170 16 -120 27 -126 30 -150 73
-38 70 -127 184 -193 247 -181 175 -404 295 -642 346 -120 25 -360 23 -485 -5
-52 -11 -99 -21 -105 -21 -7 0 -11 41 -10 123 0 132 -18 207 -55 227 -26 14
-28 13 -53 -14z m21 -256 c-5 -36 -18 -83 -29 -106 -24 -52 -24 -60 4 -79 21
-14 35 -12 163 21 242 61 433 57 649 -13 172 -55 339 -160 478 -298 64 -63
171 -198 183 -230 3 -8 -8 -31 -24 -52 -38 -47 -52 -119 -52 -257 0 -119 -8
-151 -65 -271 -24 -49 -46 -103 -49 -120 -8 -40 28 -113 71 -141 36 -24 188
-79 262 -95 28 -6 51 -12 51 -14 0 -10 -115 -214 -149 -264 -21 -31 -103 -124
-183 -207 -158 -166 -202 -235 -214 -335 -12 -107 49 -240 208 -451 187 -248
300 -484 324 -678 l7 -55 -41 59 c-45 65 -62 79 -86 70 -23 -9 -28 -38 -17
-101 25 -135 2 -362 -50 -496 -83 -212 -216 -390 -402 -539 -264 -211 -633
-362 -1037 -425 -158 -25 -550 -25 -695 0 -419 72 -736 205 -1009 423 -395
317 -652 789 -747 1374 -17 103 -17 325 -1 373 20 55 44 49 168 -43 171 -128
257 -160 424 -160 155 1 329 50 525 148 178 89 399 175 543 213 229 59 433 71
681 39 99 -12 142 -3 160 36 37 83 -23 165 -177 239 -194 94 -347 205 -457
331 -112 129 -168 222 -230 385 -57 148 -69 222 -68 419 0 200 14 282 70 425
90 229 184 350 467 599 135 118 229 221 320 352 18 25 20 26 26 8 4 -10 3 -48
-2 -84z m2554 -707 c50 -45 -12 -153 -157 -270 -162 -131 -324 -217 -565 -300
-127 -44 -466 -131 -475 -121 -3 3 12 41 35 84 52 100 68 170 75 325 8 196 25
222 128 195 242 -63 539 -37 772 68 90 40 156 47 187 19z m-150 -410 c-59 -74
-161 -154 -282 -221 -25 -14 -119 -66 -210 -117 -220 -123 -214 -121 -331 -91
-180 47 -196 61 -89 81 19 4 103 25 185 47 231 63 392 125 528 205 49 29 91
53 93 53 2 0 32 20 66 44 35 24 65 43 67 41 2 -2 -10 -21 -27 -42z m-1982
-3990 c1 -44 37 -199 59 -247 10 -24 30 -50 43 -57 18 -10 140 -13 563 -14
297 0 548 -4 558 -9 15 -7 13 -13 -22 -52 -22 -23 -43 -54 -47 -68 -10 -43 22
-91 107 -157 44 -33 78 -63 76 -66 -3 -2 -54 -17 -113 -32 -234 -62 -313 -114
-351 -233 l-20 -63 -39 2 c-38 1 -179 53 -364 133 -168 73 -534 258 -572 290
l-38 31 0 92 c0 103 -19 235 -50 346 -12 40 -19 75 -18 76 2 2 41 13 88 25 47
12 87 23 89 26 2 2 15 4 28 4 18 0 23 -5 23 -27z m-1054 -64 l111 -12 12 -190
c18 -288 44 -470 73 -510 9 -11 66 -31 163 -56 164 -42 265 -73 635 -191 256
-83 340 -115 340 -130 0 -5 -17 -18 -38 -29 -64 -33 -141 -99 -162 -141 -24
-47 -26 -128 -5 -215 23 -97 21 -105 -22 -105 -21 0 -83 7 -138 15 -246 36
-365 6 -492 -121 -87 -87 -105 -99 -135 -84 -37 20 -82 76 -182 230 -166 258
-295 496 -320 593 -15 56 -12 86 18 202 9 32 16 89 16 125 0 117 -44 526 -67
619 -6 23 -5 24 38 18 24 -4 94 -12 155 -18z"/>
<path d="M5771 7064 c-27 -20 -51 -72 -51 -113 0 -53 38 -137 80 -174 44 -40
114 -57 156 -38 55 25 77 107 53 194 -12 43 -68 111 -110 133 -37 19 -99 18
-128 -2z"/>
<path d="M4394 4567 c-115 -77 -200 -121 -306 -157 -138 -47 -240 -60 -418
-54 -153 6 -175 0 -202 -56 -16 -32 -16 -41 -3 -103 19 -91 58 -159 131 -232
43 -43 64 -73 73 -105 68 -233 424 -419 801 -420 483 -1 921 304 1006 700 19
88 22 247 5 278 -13 24 -55 30 -68 10 -4 -7 -8 -60 -9 -118 -3 -121 -20 -196
-69 -295 -77 -154 -212 -282 -390 -370 -132 -65 -217 -89 -368 -106 -233 -26
-496 36 -661 155 -34 25 -68 53 -76 63 -8 10 -27 33 -42 51 -16 19 -28 37 -28
41 0 4 33 -4 73 -17 85 -29 297 -43 335 -23 24 13 30 52 10 69 -7 5 -67 12
-133 15 -123 5 -215 26 -300 69 -55 28 -147 119 -172 170 -24 48 -44 126 -34
132 3 2 89 4 191 4 171 -1 192 1 285 26 129 35 251 89 356 158 123 80 137 98
103 132 -22 23 -36 20 -90 -17z"/>
<path d="M6742 6984 c-26 -18 -28 -46 -5 -84 15 -27 18 -27 47 -15 17 7 44 17
60 21 16 5 34 17 40 27 9 15 6 23 -17 43 -33 28 -91 32 -125 8z"/>
</g>
</svg>
